Coordinates
version=1
nRows=10
nColumns=22
inDegrees=yes

Units are S.I. units (second, meters, Newtons, ...)
If the header above contains a line with 'inDegrees', this indicates whether rotational values are in degrees (yes) or radians (no).

endheader
time	pelvis_tilt	pelvis_list	pelvis_rotation	pelvis_tx	pelvis_ty	pelvis_tz	hip_flexion_r	hip_adduction_r	hip_rotation_r	knee_angle_r	ankle_angle_r	subtalar_angle_r	hip_flexion_l	hip_adduction_l	hip_rotation_l	knee_angle_l	ankle_angle_l	subtalar_angle_l	lumbar_extension	lumbar_bending	lumbar_rotation
      0.01000000	     -4.04951083	     -7.93633810	      1.82392590	     -1.03453171	      0.97687782	      0.05472016	      5.65436878	      8.09674485	     -4.80718678	    -14.67762255	      9.99185635	      0.56773947	      3.32810074	     -6.65231590	      4.46401797	     -9.44741682	     12.51930281	     -2.70050823	      4.86944236	      6.72418929	     -8.38762149
      0.02000000	     -4.11194836	     -7.87014486	      1.80827731	     -1.03479018	      0.97669909	      0.05465471	      5.56598188	      8.01482058	     -4.09423539	    -14.45254803	      9.97040398	      0.68421337	      3.43119252	     -6.56944154	      4.47055994	     -9.49313362	     12.50303350	     -2.74050096	      4.91368167	      6.64291931	     -8.40253022
      0.03000000	     -4.10978035	     -7.87398493	      1.80344056	     -1.03491412	      0.97669632	      0.05461706	      5.56893470	      8.01616173	     -4.09367007	    -14.44823845	      9.97342492	      0.68600409	      3.43583140	     -6.57040040	      4.47120642	     -9.49302705	     12.50385441	     -2.74139413	      4.90400980	      6.63495674	     -8.40465533
      0.04000000	     -4.09565918	     -7.87447731	      1.80485804	     -1.03509089	      0.97670471	      0.05457693	      5.56306130	      8.01577839	     -4.06981677	    -14.44787269	      9.99215246	      0.69873135	      3.44702539	     -6.56679111	      4.47773017	     -9.52152929	     12.50711286	     -2.74909188	      4.87548078	      6.62239529	     -8.41648116
      0.05000000	     -4.09390090	     -7.87848005	      1.80008090	     -1.03526820	      0.97670275	      0.05454584	      5.56874369	      8.01730963	     -4.07060414	    -14.44113728	      9.99389253	      0.70020086	      3.45378251	     -6.56820794	      4.47771763	     -9.51779127	     12.50801925	     -2.75004030	      4.86221701	      6.61457831	     -8.41777401
      0.06000000	     -4.08143684	     -7.88178324	      1.80212583	     -1.03549916	      0.97671222	      0.05453107	      5.57045407	      8.02052021	     -4.05800961	    -14.44332039	      9.99965990	      0.71038419	      3.46521644	     -6.56969146	      4.48336310	     -9.53545843	     12.50829925	     -2.75740891	      4.83067190	      6.60260160	     -8.41801627
      0.07000000	     -4.07975033	     -7.88522673	      1.79740926	     -1.03572906	      0.97671324	      0.05451883	      5.57902277	      8.02252535	     -4.05932087	    -14.43554772	     10.00076329	      0.71159051	      3.47407814	     -6.57157695	      4.48315858	     -9.52938643	     12.50888892	     -2.75836077	      4.81233117	      6.59514191	     -8.41868390
      0.08000000	     -4.06743823	     -7.88929213	      1.79981938	     -1.03601109	      0.97672462	      0.05452666	      5.58939945	      8.02764538	     -4.05140400	    -14.44643413	      9.99838267	      0.71932574	      3.48398682	     -6.57582416	      4.48667699	     -9.53694705	     12.50468315	     -2.76484985	      4.77583771	      6.58410533	     -8.41212155
      0.09000000	     -4.05766774	     -7.89160893	      1.79287315	     -1.03630587	      0.97673521	      0.05453834	      5.60354265	      8.02971141	     -4.04838051	    -14.45644555	      9.99438788	      0.72947743	      3.48912783	     -6.57819623	      4.48485158	     -9.53429386	     12.49849424	     -2.77495995	      4.73980677	      6.57697950	     -8.40320809
      0.10000000	     -4.05693879	     -7.89372492	      1.78976441	     -1.03659148	      0.97673479	      0.05455810	      5.61637135	      8.03275259	     -4.04993787	    -14.44677631	      9.99489488	      0.73044755	      3.49930861	     -6.58093670	      4.48299855	     -9.52298399	     12.49858297	     -2.77601692	      4.71736769	      6.56820430	     -8.40280624
